<svg width="522" height="517" viewBox="0 0 522 517" fill="none" xmlns="http://www.w3.org/2000/svg">
<path d="M0 278.9L28.2 268.3C28.2 268.3 44 264.7 93.9 248.4C93.9 248.4 179.5 229.8 191.9 221.3L188.5 231.9L0 278.9Z" fill="url(#paint0_linear_10_63)"/>
<path d="M14 278.9L175.8 252.8L171.2 257.7L14 278.9Z" fill="url(#paint1_linear_10_63)"/>
<path d="M256.7 247.4C256.7 247.4 253.2 254.8 238.1 255.2C226.7 253.1 219.6 243.5 219.6 243.5C213.3 234.7 212.1 225.5 212.7 218C213.6 221.7 222.3 261.4 256.7 247.4Z" fill="#1B2431"/>
<path d="M212.8 218C212.8 217.8 212.7 217.7 212.7 217.7" stroke="white" stroke-width="0.5" stroke-miterlimit="10"/>
<path d="M263.7 208.7C252.1 185.1 227.7 194.3 227.7 194.3L212.7 202.4C212.7 202.4 195.4 211.1 192.8 229.8C192.8 229.8 192.5 231.1 192.5 233.2L210.7 224C210.4 217.1 212 209.3 217.6 201.4C217.3 201.9 213.7 208.7 213 218C213.7 221.7 222.4 261.4 256.9 247.4C256.9 247.4 253.4 254.8 238.3 255.2C238.3 255.2 235 256.3 231.6 254.6L232.2 259.1C232.2 259.1 247.7 260.9 257.5 249C257.4 249.1 275.3 232.3 263.7 208.7ZM248.4 244.1C237.9 247.5 226.1 240.1 222 227.6C217.9 215 223.1 202.1 233.6 198.7C244.1 195.3 255.9 202.7 260 215.2C264.2 227.7 259 240.7 248.4 244.1Z" fill="white"/>
<path d="M219.7 247.8C215.4 246.1 208.5 234.7 208.5 234.7L197.7 240.3C197.2 246.8 203.3 256 203.7 256.5C199.3 252 195.2 242.9 195.2 242.9C195.7 247 200 253.8 200.1 254C193.1 247.1 192.3 238 192.5 233.2L210.7 224C211.2 237.7 219.7 247.8 219.7 247.8Z" fill="#91A4BA"/>
<path d="M236.8 230C239.672 230 242 227.672 242 224.8C242 221.928 239.672 219.6 236.8 219.6C233.928 219.6 231.6 221.928 231.6 224.8C231.6 227.672 233.928 230 236.8 230Z" fill="white"/>
<path d="M461.5 218.4C461.5 218.4 458 225.8 442.9 226.2C431.5 224.1 424.4 214.5 424.4 214.5C418.1 205.7 416.9 196.5 417.5 189C418.3 192.7 427 232.3 461.5 218.4Z" fill="#1B2431"/>
<path d="M468.4 179.7C456.8 156.1 432.4 165.3 432.4 165.3L417.4 173.4C417.4 173.4 401.1 181.6 397.7 199.2L415.3 192.3C415.5 186.1 417.3 179.3 422.2 172.3C421.9 172.8 418.3 179.6 417.6 188.9C418.3 192.6 427 232.3 461.5 218.3C461.5 218.3 458 225.7 442.9 226.1C442.9 226.1 439.6 227.2 436.2 225.5L436.8 230C436.8 230 452.3 231.8 462.1 219.9C462.1 220 480 203.3 468.4 179.7ZM453.2 215C442.7 218.4 430.8 211 426.8 198.5C422.7 185.9 427.9 173 438.4 169.6C448.9 166.2 460.8 173.6 464.8 186.1C468.9 198.7 463.7 211.6 453.2 215Z" fill="white"/>
<path d="M424.4 218.7C420.1 217 413.2 205.6 413.2 205.6L402.4 211.2C401.9 217.7 408 226.9 408.4 227.4C404 222.9 399.9 213.8 399.9 213.8C400.4 217.9 404.7 224.7 404.8 224.9C394.7 215.1 397.5 200.7 397.5 200.7C397.6 200.2 397.7 199.7 397.8 199.2L415.4 192.3C414.9 207.4 424.4 218.7 424.4 218.7Z" fill="#91A4BA"/>
<path d="M441.5 201C444.372 201 446.7 198.672 446.7 195.8C446.7 192.928 444.372 190.6 441.5 190.6C438.628 190.6 436.3 192.928 436.3 195.8C436.3 198.672 438.628 201 441.5 201Z" fill="white"/>
<path d="M124.2 236.6L193.5 214.4C193.5 214.4 178.9 216.8 150.2 225.9C121.4 235 124.2 236.6 124.2 236.6Z" fill="url(#paint2_linear_10_63)"/>
<path d="M169.5 204.8C155.5 203.9 134.9 202.9 130.6 207L123.9 213.5C123 214.3 122.4 215.4 122.3 216.6C121.9 219 123 222.2 132.2 221.2C132.2 221.2 144 217.7 156 216.1C160.4 215.5 164.6 214.5 168.8 213.1C178.3 209.9 193.8 204.4 194.8 202.2C194.9 202.3 183.6 205.7 169.5 204.8Z" fill="url(#paint3_linear_10_63)"/>
<path d="M135.8 177.8L128.5 180.4C127.2 180.9 126 181.8 125.3 183C124.3 184.7 123.2 187.1 124 188.9C125.4 192 160.4 192.6 160.4 192.6C160.4 192.6 197 197.3 199.4 191.2C199.4 191.2 174.5 190.2 139.8 177.9C138.6 177.4 137.1 177.4 135.8 177.8Z" fill="url(#paint4_linear_10_63)"/>
<path d="M146.7 151.9L139 151.7C137.6 151.7 136.2 152.1 135.1 153C133.5 154.2 131.7 156.1 131.8 158.1C132 161.5 164.5 174.5 164.5 174.5C164.5 174.5 197 192 201.5 187.1C201.5 187.1 178.6 177.3 150.6 153.4C149.5 152.4 148.1 151.9 146.7 151.9Z" fill="url(#paint5_linear_10_63)"/>
<path d="M166.5 132.4C165.7 131.3 164.6 130.6 163.3 130.3L156.3 128.6C155 128.3 153.6 128.5 152.4 129.1C150.7 130 148.5 131.4 148.1 133.4C147.5 136.7 174.1 155.4 174.1 155.4C174.1 155.4 199.7 178.4 205 174.5C205 174.4 186.4 160.7 166.5 132.4Z" fill="url(#paint6_linear_10_63)"/>
<path d="M186.6 110.7L180.3 107.2C179.1 106.6 177.8 106.3 176.4 106.6C174.5 106.9 172 107.7 171.1 109.5C169.6 112.5 190.1 137.8 190.1 137.8C190.1 137.8 208.4 166.9 214.6 164.7C214.6 164.7 200.5 146.3 189.1 113.7C188.6 112.4 187.8 111.4 186.6 110.7Z" fill="url(#paint7_linear_10_63)"/>
<path d="M214.3 98L209.3 92.8C208.4 91.8 207.1 91.3 205.7 91.1C203.8 90.9 201.2 90.9 199.8 92.4C197.5 94.8 209.8 124.9 209.8 124.9C209.8 124.9 218.9 158.1 225.5 157.7C225.5 157.7 217.3 136 215.8 101.5C215.7 100.2 215.2 98.9 214.3 98Z" fill="url(#paint8_linear_10_63)"/>
<path d="M244.1 87.4999C243.6 86.2999 242.6 85.2999 241.3 84.6999C239.6 83.7999 237.1 82.9999 235.3 83.8999C232.3 85.3999 230.6 117.7 230.6 117.7C230.6 117.7 232.8 143.9 237.3 154.1C237.3 154.1 235.9 130.9 246.2 97.8999C246.6 96.5999 246.5 95.2999 246 94.0999L244.1 87.4999Z" fill="url(#paint9_linear_10_63)"/>
<path d="M276.7 100.4L277.1 93.2C277 91.8 276.4 90.5 275.4 89.5C274.1 88.1 272 86.4 270 86.7C266.7 87.2 254.1 118.9 254.1 118.9C254.1 118.9 247.3 145.8 248.1 157.4C248.1 157.4 254.6 133.8 275.6 104.3C276.5 103.1 276.8 101.8 276.7 100.4Z" fill="url(#paint10_linear_10_63)"/>
<path d="M308.7 103.8C308 101.9 306.7 99.6 304.7 99.3C301.3 98.7 277.1 126.2 277.1 126.2C277.1 126.2 260.2 150.8 256.4 162.6C256.4 162.6 271.7 141.2 303.1 118.6C304.3 117.7 305.2 116.5 305.6 115.1L308.8 108C309.3 106.7 309.3 105.2 308.7 103.8Z" fill="url(#paint11_linear_10_63)"/>
<path d="M214 191.6C214 191.6 210.3 170.4 230.7 166.3C230.7 166.3 244.5 163.3 251.7 176.4C251.7 176.4 246 171.4 239.2 173.9L245.7 182.6C245.7 182.6 226.6 179.3 214 191.6Z" fill="#F7F9FB"/>
<path d="M455.9 94.2C455.9 94.2 373.6 131.3 307.7 178.8C307.7 178.8 300.5 183.9 284.4 186.7C280.4 187.4 277 188.1 274 188.7L328.5 148C328.5 148 347.1 134.3 370.8 120.6C371.3 123.8 372.2 126.9 373.5 129.7L374.3 131.5L387 123.5L386.7 122.3C386.7 122.2 385.9 118.3 385.5 112.5C389.8 110.2 394.2 108.1 398.6 106.1C433.8 90 455.9 86.7 455.9 86.7C455.7 89 455.7 91.5 455.9 94.2Z" fill="#91A4BA"/>
<path d="M498.8 80.9L461.1 100.6L460.2 99.3L485 86.7C484.2 87 459.6 95.8 459.3 97.5C459.3 97.5 456.8 92.7 457.2 86.4C462.8 84.3 499.4 71.2 498.8 80.9Z" fill="#91A4BA"/>
<path d="M495.7 102.6C495.7 102.6 472.8 134.4 436 154.4C399.2 174.3 379.9 192.6 379.9 192.6C379.9 192.6 355.5 221.5 316 230.7L312.2 225.8L404.7 162.5L472.4 114.5L473.9 115V114C473.9 114 460 110.6 456 94.1001C456 94.1001 455.7 91.1 455.8 89.3C455.8 89.3 456.7 107.2 475 112.6C475 112.6 495.8 93.5 498.9 80.8C499.5 71.1 462.9 84.2 457.2 86.3C457.2 85.4 457.4 84.5 457.5 83.5C458.9 75.9 468 68.3 468 68.3L476.7 66.8C476.7 66.8 498.4 68 501.7 75.5C501.7 75.5 507.2 85.7001 495.7 102.6Z" fill="white"/>
<path d="M385.1 122.7L375.1 129C373.8 126.2 372.9 123 372.5 119.7L383.9 113.4C384.3 119 385.1 122.7 385.1 122.7Z" fill="#91A4BA"/>
<path d="M383.9 113.4L372.5 119.7C370.9 108.8 373.3 97.4 373.3 97.4C373.4 96.6 385.2 90.5 385.2 90.5C383.3 99 383.4 107.4 383.9 113.4Z" fill="white"/>
<path d="M442.5 85.4C443.439 85.4 444.2 84.6389 444.2 83.7C444.2 82.7611 443.439 82 442.5 82C441.561 82 440.8 82.7611 440.8 83.7C440.8 84.6389 441.561 85.4 442.5 85.4Z" stroke="white" stroke-miterlimit="10"/>
<path d="M439.8 66.9L451.8 64.8C459 63.3 466.3 67.4 466.3 67.4L472.3 66.7C453.6 54 421.4 65.1 421.4 65.1C391.8 71.4 341.4 116.5 341.4 116.5L275.9 169.7L253.9 190.4C256.6 193.4 260.4 192.6 260.4 192.6C260.4 192.6 264.9 190.8 274 188.7L328.5 148C328.5 148 347.1 134.3 370.8 120.6C369 109.4 371.4 97.7 371.5 97.1C371.7 96.2 371.8 95.5 384.3 89.1L387.5 87.4L386.8 90.9C385.2 98.8 385.2 106.6 385.6 112.5C389.9 110.2 394.3 108.1 398.7 106.1C433.9 90 456 86.7 456 86.7C457.6 73.5 467.1 67.7 467.1 67.7C462.9 67.8 443.2 73.3 443.2 73.3L439.8 66.9ZM271.2 185.8C271.2 186 271.1 186.1 271 186.2L268.5 183C268.5 182.9 268.6 182.7 268.7 182.6L270.3 181C270.6 180.7 271.2 180.9 271.2 181.4V185.8ZM276.7 181.9C276.7 182.1 276.6 182.2 276.5 182.3L274.9 183.7C274.6 184 274 183.8 274 183.3V179.1C274 179 274.1 178.8 274.2 178.7L275.8 177.1C276.1 176.8 276.7 177 276.7 177.5V181.9ZM282.1 177.8C282.1 178 282 178.1 281.9 178.2L280.3 179.6C280 179.9 279.4 179.7 279.4 179.2V175C279.4 174.9 279.5 174.7 279.6 174.6L281.2 173C281.5 172.7 282.1 172.9 282.1 173.4V177.8ZM286.9 173.8C286.9 174 286.8 174.1 286.7 174.2L285.1 175.6C284.8 175.9 284.2 175.7 284.2 175.2V171C284.2 170.9 284.3 170.7 284.4 170.6L286 169C286.3 168.7 286.9 168.9 286.9 169.4V173.8ZM292 170.3C292 170.5 291.9 170.6 291.8 170.7L290.2 172.1C289.9 172.4 289.3 172.2 289.3 171.7V167.5C289.3 167.4 289.4 167.2 289.5 167.1L291.1 165.5C291.4 165.2 292 165.4 292 165.9V170.3ZM297.2 166.1C297.2 166.3 297.1 166.4 297 166.5L295.4 167.9C295.1 168.2 294.5 168 294.5 167.5V163.3C294.5 163.2 294.6 163 294.7 162.9L296.3 161.3C296.6 161 297.2 161.2 297.2 161.7V166.1ZM302.6 162C302.6 162.2 302.5 162.3 302.4 162.4L300.8 163.8C300.5 164.1 299.9 163.9 299.9 163.4V159.2C299.9 159.1 300 158.9 300.1 158.8L301.7 157.2C302 156.9 302.6 157.1 302.6 157.6V162ZM307.1 158.5C307.1 158.7 307 158.8 306.9 158.9L305.3 160.3C305 160.6 304.4 160.4 304.4 159.9V155.7C304.4 155.6 304.5 155.4 304.6 155.3L306.2 153.7C306.5 153.4 307.1 153.6 307.1 154.1V158.5ZM312.2 155.1C312.2 155.3 312.1 155.4 312 155.5L310.4 156.9C310.1 157.2 309.5 157 309.5 156.5V152.3C309.5 152.2 309.6 152 309.7 151.9L311.3 150.3C311.6 150 312.2 150.2 312.2 150.7V155.1ZM317.2 151.7C317.2 151.9 317.1 152 317 152.1L315.4 153.5C315.1 153.8 314.5 153.6 314.5 153.1V148.9C314.5 148.8 314.6 148.6 314.7 148.5L316.3 146.9C316.6 146.6 317.2 146.8 317.2 147.3V151.7ZM323 146.7C323 146.9 322.9 147 322.8 147.1L321.2 148.5C320.9 148.8 320.3 148.6 320.3 148.1V143.9C320.3 143.8 320.4 143.6 320.5 143.5L322.1 141.9C322.4 141.6 323 141.8 323 142.3V146.7ZM327.7 142.4C327.7 142.6 327.6 142.7 327.5 142.8L325.9 144.2C325.6 144.5 325 144.3 325 143.8V139.6C325 139.5 325.1 139.3 325.2 139.2L326.8 137.6C327.1 137.3 327.7 137.5 327.7 138V142.4ZM333.6 138.1C333.6 138.3 333.5 138.4 333.4 138.5L331.8 139.9C331.5 140.2 330.9 140 330.9 139.5V135.3C330.9 135.2 331 135 331.1 134.9L332.7 133.3C333 133 333.6 133.2 333.6 133.7V138.1ZM338.8 133.9C338.8 134.1 338.7 134.2 338.6 134.3L337 135.7C336.7 136 336.1 135.8 336.1 135.3V131.1C336.1 131 336.2 130.8 336.3 130.7L337.9 129.1C338.2 128.8 338.8 129 338.8 129.5V133.9ZM344.9 129C344.9 129.2 344.8 129.3 344.7 129.4L343.1 130.8C342.8 131.1 342.2 130.9 342.2 130.4V126.2C342.2 126.1 342.3 125.9 342.4 125.8L344 124.2C344.3 123.9 344.9 124.1 344.9 124.6V129ZM350.7 124.7C350.7 124.9 350.6 125 350.5 125.1L348.9 126.5C348.6 126.8 348 126.6 348 126.1V121.9C348 121.8 348.1 121.6 348.2 121.5L349.8 119.9C350.1 119.6 350.7 119.8 350.7 120.3V124.7ZM355.1 120.1C355.1 120.3 355 120.4 354.9 120.5L353.3 121.9C353 122.2 352.4 122 352.4 121.5V117.3C352.4 117.2 352.5 117 352.6 116.9L354.2 115.3C354.5 115 355.1 115.2 355.1 115.7V120.1ZM360 116.1C360 116.3 359.9 116.4 359.8 116.5L358.2 117.9C357.9 118.2 357.3 118 357.3 117.5V113.3C357.3 113.2 357.4 113 357.5 112.9L359.1 111.3C359.4 111 360 111.2 360 111.7V116.1ZM408.2 87.9C408.1 86.7 413 78.1 415.7 75.3C418.4 72.5 436.9 67.5 436.9 67.5L440.2 74.6L408.2 87.9Z" fill="white"/>
<path d="M404.4 182.4C404.4 182.4 400 187.7 399.6 188.6L387.2 187.7L394.7 182.3C394.7 182.4 401 180.6 404.4 182.4Z" fill="white"/>
<path d="M456 146.1C456 146.1 453.6 147.5 450.6 149.3C452.5 149.3 454 150.9 454 152.8C454 154.7 452.4 156.3 450.5 156.3C448.6 156.3 447 154.7 447 152.8C447 152.2 447.2 151.6 447.5 151.1C443.7 153.2 440.1 155.1 439.5 154.9V159.3C439.5 159.3 456.9 157.9 461.5 163.6C461.5 163.5 461.3 150.8 456 146.1Z" fill="url(#paint12_linear_10_63)"/>
<path d="M324.388 120.102L263.392 169.04L264.707 170.678L325.703 121.74L324.388 120.102Z" fill="white"/>
<path d="M514.5 169.6L515.6 190.6H476.3V195.8L518.9 192.7L514.5 169.6Z" fill="white"/>
<path d="M305.7 77.1C287.7 69.5 268.6 65.6 248.9 65.6C229.2 65.6 210.1 69.5 192.1 77.1C174.7 84.5 159.1 95 145.7 108.4C132.3 121.8 121.8 137.4 114.4 154.8C106.8 172.8 102.9 191.9 102.9 211.6C102.9 222.2 104 232.6 106.2 242.7L112.3 240.9L112.8 240.8C110.8 231.3 109.7 221.5 109.7 211.6C109.7 192.8 113.4 174.6 120.6 157.5C127.6 140.9 137.6 126.1 150.4 113.3C163.2 100.5 178 90.5 194.6 83.5C211.9 76.2 230.1 72.5 248.9 72.5C267.7 72.5 285.9 76.2 303 83.4C317.2 89.4 330.2 97.7 341.6 107.9L342 107.6L346.9 103.4C334.7 92.4 320.9 83.5 305.7 77.1Z" fill="white"/>
<path d="M303.2 83C286 75.7 267.7 72 248.9 72C230.1 72 211.8 75.7 194.6 83C178 90 163.1 100.1 150.2 112.9C137.4 125.7 127.3 140.6 120.3 157.3C113 174.5 109.3 192.8 109.3 211.6C109.3 221.6 110.3 231.4 112.4 240.9L112.9 240.8L117.4 239.5C115.5 230.5 114.5 221.2 114.5 211.6C114.5 137.5 174.8 77.2 248.9 77.2C283.1 77.2 314.3 90 338 111.1L341.6 108L342 107.7C330.5 97.3 317.5 89 303.2 83Z" fill="#8897A8"/>
<path d="M374.8 84.4L356.1 98C328.1 71.6 290.4 55.4 248.8 55.4C162.5 55.4 92.6 125.3 92.6 211.6C92.6 223.2 93.9 234.5 96.3 245.4L74.3 251.2C71.4 238.4 69.9 225.2 69.9 211.6C69.9 112.8 150 32.6 248.9 32.6C298 32.5 342.5 52.3 374.8 84.4Z" fill="url(#paint13_linear_10_63)"/>
<path d="M385.1 221.6C238.3 261 54.1 302.3 7.29999 320.3L392.3 226.8L385.1 221.6Z" fill="#B21F1F"/>
<path d="M395.4 230.2C281.5 257 20.3 318.6 11 328.9C139.3 297.7 274.3 266.6 402.6 235.4L395.4 230.2Z" fill="#B21F1F"/>
<path d="M75.3 230L79.4 227.2L78 222.4L81.9 225.4L86 222.6L84.3 227.3L88.3 230.4L83.3 230.2L81.6 234.9L80.2 230.1L75.3 230Z" fill="white"/>
<path d="M75 196.7L79.5 194.7L79.1 189.7L82.4 193.5L86.9 191.5L84.4 195.8L87.7 199.5L82.8 198.4L80.3 202.7L79.8 197.7L75 196.7Z" fill="white"/>
<path d="M81 163.9L85.9 162.8L86.3 157.8L88.9 162.1L93.7 161L90.4 164.8L93 169.1L88.4 167.1L85.1 170.8L85.6 165.8L81 163.9Z" fill="white"/>
<path d="M93.1 132.8L98.1 132.7L99.5 127.9L101.2 132.6L106.2 132.5L102.2 135.5L103.9 140.2L99.8 137.4L95.8 140.4L97.3 135.6L93.1 132.8Z" fill="white"/>
<path d="M110.9 104.6L115.8 105.4L118.1 101L118.9 105.9L123.8 106.7L119.3 109L120.1 113.9L116.6 110.3L112.1 112.6L114.4 108.2L110.9 104.6Z" fill="white"/>
<path d="M133.7 80.3L138.4 82L141.5 78.1L141.3 83.1L146 84.8L141.2 86.2L141 91.1L138.2 87L133.4 88.3L136.5 84.4L133.7 80.3Z" fill="white"/>
<path d="M160.7 60.7L165 63.3L168.8 60.1L167.6 64.9L171.9 67.5L166.9 67.9L165.8 72.7L163.9 68.2L158.9 68.6L162.7 65.3L160.7 60.7Z" fill="white"/>
<path d="M190.9 46.6L194.6 50L198.9 47.5L196.9 52L200.6 55.4L195.7 54.8L193.6 59.4L192.6 54.5L187.7 54L192 51.5L190.9 46.6Z" fill="white"/>
<path d="M223.3 38.5L226.3 42.5L231 40.9L228.1 44.9L231.1 48.9L226.4 47.5L223.5 51.5L223.4 46.6L218.7 45.1L223.4 43.5L223.3 38.5Z" fill="white"/>
<path d="M256.6 36.6L258.8 41.1L263.7 40.4L260.1 43.9L262.3 48.3L257.9 46L254.3 49.5L255.2 44.6L250.8 42.3L255.7 41.6L256.6 36.6Z" fill="white"/>
<path d="M289.6 41.1L290.9 45.9L295.9 46.2L291.7 48.9L293 53.7L289.1 50.6L285 53.3L286.7 48.6L282.9 45.5L287.8 45.8L289.6 41.1Z" fill="white"/>
<path d="M321.2 51.7999L321.6 56.6999L326.4 57.8999L321.8 59.7999L322.2 64.6999L318.9 60.9999L314.3 62.7999L317 58.5999L313.7 54.7999L318.6 55.9999L321.2 51.7999Z" fill="white"/>
<path d="M350.2 68.2L349.6 73.1L354.1 75.2L349.3 76.2L348.7 81.1L346.3 76.8L341.4 77.8L344.7 74.1L342.3 69.8L346.8 71.8999L350.2 68.2Z" fill="white"/>
<path d="M248.9 0C132.1 0 37.4 94.7 37.4 211.5C37.4 228 39.3 244.1 42.9 259.5L65.7 253.4C62.6 239.9 61 225.9 61 211.4C61 107.6 145.2 23.4 249 23.4C301.1 23.4 348.3 44.6 382.3 78.9L401.6 64.9C363 24.9 308.8 0 248.9 0ZM45.5 225.3L45.2 217.8L55.6 217.4L55.9 224.9L45.5 225.3ZM56 193L45.7 191.7L46.7 184.2L57 185.5L56 193ZM61.4 161.5L51.4 158.5L53.6 151.3L63.6 154.3L61.4 161.5ZM71.9 131.4L62.6 126.8L65.9 120L75.2 124.6L71.9 131.4ZM87.2 103.4L78.8 97.3L83.2 91.2L91.6 97.3L87.2 103.4ZM106.9 78.3L99.6 70.9L105 65.6L112.3 73L106.9 78.3ZM130.5 56.8L124.5 48.3L130.7 44L136.7 52.5L130.5 56.8ZM157.3 39.5L152.8 30.1L159.6 26.8L164.1 36.2L157.3 39.5ZM186.6 26.8L183.7 16.8L190.9 14.7L193.8 24.7L186.6 26.8ZM217.6 19.1L216.4 8.8L223.9 7.9L225.1 18.2L217.6 19.1ZM256.9 17L249.4 16.6L249.9 6.2L257.4 6.6L256.9 17ZM288.5 21L281.1 19.4L283.3 9.2L290.7 10.8L288.5 21ZM319.1 30.2L312.1 27.4L315.9 17.7L322.9 20.5L319.1 30.2ZM347.7 44.2L341.2 40.3L346.6 31.4L353.1 35.3L347.7 44.2ZM373.6 62.8L367.9 57.9L374.7 50L380.4 54.9L373.6 62.8Z" fill="url(#paint14_linear_10_63)"/>
<path d="M49.9 332.5L33.8 336.4L26.5 399.1L37.6 396.3L41.9 353.2H42.1L46.8 394L57.6 391.3L49.9 332.5Z" fill="#FDFFFE"/>
<path d="M62 424.9L50.6 427.7L48.7 411.2L35.8 414.3L34.1 431.8L22.4 434.6L26.5 399.2L37.6 396.4L37 402.4L47.5 399.8L46.8 394L57.6 391.3L62 424.9Z" fill="#C5D6E8"/>
<path d="M91.9 378.1V382.6L103.9 379.6V375.2L91.9 378.1ZM91.9 359.6L103.7 356.7V343.6C103.7 326.7 98.1 319.6 86.8 322.4C83.5 323.2 80.7 324.5 78.4 326.4C72.2 331.5 69 341.1 69 355.3V388.4L81.3 385.3V350C81.3 345.4 81.7 341.8 82.5 339.4C83.3 337 84.7 335.5 86.7 335C88.7 334.5 90.1 335.2 90.8 337.2C91.5 339.1 91.8 342.6 91.8 347.5V359.6H91.9Z" fill="#FDFFFE"/>
<path d="M103.9 379.5V388.6C103.9 397.8 102.5 405 99.8 410.1C97 415.2 92.7 418.5 86.8 419.9C80.9 421.3 76.5 420.1 73.5 416.1C70.6 412.1 69.1 405.7 69.1 396.8V388.3L81.4 385.2V394.5C81.4 399.6 81.8 403.2 82.5 405.2C83.2 407.2 84.6 408 86.6 407.5C88.6 407 90 405.6 90.7 403.1C91.5 400.7 91.8 396.9 91.8 391.7V382.5L103.9 379.5Z" fill="#C5D6E8"/>
<path d="M135.6 367.4V371.5L147.6 368.5V364.5L135.6 367.4ZM135.6 348.9L147.4 346V332.9C147.4 316 141.8 308.9 130.5 311.7C127.2 312.5 124.4 313.8 122.1 315.7C115.9 320.8 112.7 330.4 112.7 344.6V377.3L125 374.2V339.3C125 334.7 125.4 331.1 126.2 328.7C127 326.3 128.4 324.8 130.4 324.3C132.4 323.8 133.8 324.5 134.5 326.5C135.2 328.4 135.5 331.9 135.5 336.8V348.9H135.6Z" fill="#FDFFFE"/>
<path d="M147.6 368.4V377.9C147.6 387.1 146.2 394.3 143.5 399.4C140.7 404.5 136.4 407.8 130.5 409.2C124.6 410.6 120.2 409.4 117.3 405.4C114.4 401.4 112.9 395 112.9 386.1V377.2L125.2 374.1V383.8C125.2 388.9 125.6 392.5 126.3 394.5C127.1 396.5 128.4 397.3 130.4 396.8C132.4 396.3 133.8 394.9 134.5 392.4C135.3 390 135.6 386.2 135.6 381V371.4L147.6 368.4Z" fill="#C5D6E8"/>
<path d="M184.3 312.1V299.6L157.5 306.2V365.9L169.7 362.8V355.7L183.6 352.3V340.1L169.7 343.5V315.8L184.3 312.1Z" fill="#FDFFFE"/>
<path d="M184.8 382.3V394.8L157.5 401.5V365.9L169.6 362.8V386L184.8 382.3Z" fill="#C5D6E8"/>
<path d="M194.6 297.1V356.5L206.8 353.4V294.1L194.6 297.1Z" fill="#FDFFFE"/>
<path d="M222.1 373.3V385.7L194.6 392.4V356.4L206.7 353.3V377.1L222.1 373.3Z" fill="#C5D6E8"/>
<path d="M256 294.5V282L229.2 288.6V347.7L241.4 344.6V338.2L255.3 334.8V322.6L241.4 326V298.3L256 294.5Z" fill="#FDFFFE"/>
<path d="M256.5 364.7V377.2L229.1 383.9V347.6L241.3 344.5V368.4L256.5 364.7Z" fill="#C5D6E8"/>
<path d="M293.5 317.7C296.3 316 298.2 313.5 299.2 310.2C300.2 306.9 300.7 302.4 300.7 296.6C300.7 290.8 300.4 286.2 299.7 282.7C299 279.3 297.7 276.8 295.6 275.3C293.5 273.8 290.4 273.6 286.2 274.6L266.1 279.5V338.2L278.3 335.1V326.8L282.2 326.1C284.8 325.5 286.5 325.9 287.3 327C288 327.9 288.4 329.7 288.5 332.5L300.2 329.5C299.9 326.6 299.6 324.4 299.1 322.9C298.2 319.3 296.3 317.6 293.5 317.7ZM288.7 298.2C288.7 302.4 288.6 305.5 288.3 307.6C288 309.7 287.5 311.2 286.8 312.3C286.1 313.3 284.9 314 283.4 314.4L278.5 315.6V287.7L282.6 286.7C285.2 286.1 286.9 286.4 287.6 287.8C288.3 289.2 288.7 292.5 288.7 297.7V298.2Z" fill="#FDFFFE"/>
<path d="M301.4 366.2L289.2 369.2C288.9 368.6 288.7 357.2 288.7 335.1C288.7 334.1 288.7 333.3 288.6 332.5L300.3 329.5C300.7 333.7 300.9 339.4 300.9 346.6C300.9 358.9 301.1 365.4 301.4 366.2Z" fill="#C5D6E8"/>
<path d="M278.4 335.1V371.9L266.2 374.9V338.2L278.4 335.1Z" fill="#C5D6E8"/>
<path d="M336 262.4L319.9 266.3L312.9 326.3L324 323.5L328 283.1H328.2L332.6 321.3L343.4 318.6L336 262.4Z" fill="#FDFFFE"/>
<path d="M348.1 354.8L336.8 357.6L334.9 341L322 344.2L320.2 361.6L308.5 364.5L312.9 326.3L324 323.5L323.1 332.2L333.6 329.7L332.6 321.3L343.4 318.6L348.1 354.8Z" fill="#C5D6E8"/>
<path d="M350.4 258.9V271.5L359.8 269.2V314.5L371.9 311.4V266.2L380.9 264V251.4L350.4 258.9Z" fill="#FDFFFE"/>
<path d="M371.9 311.3V348.9L359.7 351.9V314.4L371.9 311.3Z" fill="#C5D6E8"/>
<path d="M414.4 255.7V243.2L387.6 249.8V307.4L399.8 304.3V299.3L413.7 295.9V283.7L399.8 287.1V259.4L414.4 255.7Z" fill="#FDFFFE"/>
<path d="M415 325.9V338.4L387.6 345.1V307.3L399.8 304.2V329.6L415 325.9Z" fill="#C5D6E8"/>
<path d="M453.1 290.7L451.2 303.8L449.1 291.7L439.8 236.9L424.7 240.6V297.9V336L435.5 333.4V297.8L435.4 295.2L435 265.3L440 294L446.2 330.3L455.9 327.9L462 288.4L466.7 257.5L466.3 287.3L466.2 290.3V325.8L477.1 323.1V284.6V227.8L461.9 231.5L453.1 290.7Z" fill="#B21F1F"/>
<path d="M510.9 276L508.7 268.8L520.8 217.1L509.4 219.9L503 249.8L495.1 223.4L484.8 225.9L497.1 267.1L494.1 280.2L484.7 321.3L496.5 318.4L503.1 287.5L511.2 314.8L521.8 312.2L510.9 276Z" fill="#B21F1F"/>
<path d="M356.6 156.4L310.8 197.2L266.9 207.6L264.7 203.6L261.7 198.7L307.4 187.5L356.6 156.4Z" fill="url(#paint15_linear_10_63)"/>
<path d="M521.8 319.1V393.8L22.4 517V496.2L250.9 439.8V385.9L521.8 319.1Z" fill="#B21F1F"/>
<path d="M521.8 373V384.3L22.4 507.5V496.2L521.8 373Z" fill="white"/>
<path d="M521.8 351.6V362.9L250.9 429.5L251.2 418.8L521.8 351.6Z" fill="white"/>
<path d="M521.8 330.2V341.5L250.9 408.1L251.2 397.4L521.8 330.2Z" fill="white"/>
<path d="M242.8 385.9V433.9L22.4 488.3V440.3L242.8 385.9Z" fill="url(#paint16_linear_10_63)"/>
<path d="M129.6 436.9L127.6 430.8L125.7 436.7L119.4 436.5L124.5 440.4L122.5 446.3L127.6 442.8L132.7 446.7L130.8 440.7L135.9 437.2L129.6 436.9Z" fill="white"/>
<path d="M163.2 427.9L161.3 421.8L159.3 427.7L153 427.5L158.1 431.4L156.2 437.3L161.3 433.8L166.4 437.7L164.4 431.6L169.5 428.2L163.2 427.9Z" fill="white"/>
<path d="M196.6 420.1L194.7 414L192.7 420L186.4 419.7L191.5 423.6L189.6 429.5L194.7 426L199.8 430L197.8 423.9L202.9 420.4L196.6 420.1Z" fill="white"/>
<path d="M236.3 410.7L230 410.4L228 404.3L226.1 410.2L219.8 410L224.9 413.9L222.9 419.8L228 416.3L233.1 420.2L231.2 414.2L236.3 410.7Z" fill="white"/>
<path d="M115.4 425.5V431.8L22.4 454.5V448.2L115.4 425.5Z" fill="#FF5500"/>
<path d="M115.4 438.8V445.1L22.4 467.8V461.5L115.4 438.8Z" fill="#FF5500"/>
<path d="M115.4 452.1V458.4L22.4 481.1V474.8L115.4 452.1Z" fill="#FF5500"/>
<defs>
<linearGradient id="paint0_linear_10_63" x1="0.0179" y1="250.063" x2="191.874" y2="250.063" gradientUnits="userSpaceOnUse">
<stop stop-color="#B7C0CB"/>
<stop offset="0.3616" stop-color="#FBFCFC"/>
<stop offset="0.4651" stop-color="#F7F8F9"/>
<stop offset="0.5721" stop-color="#EAEDEF"/>
<stop offset="0.6807" stop-color="#D6DBE0"/>
<stop offset="0.7896" stop-color="#B9C2CA"/>
<stop offset="0.8833" stop-color="#9AA6B2"/>
</linearGradient>
<linearGradient id="paint1_linear_10_63" x1="13.9805" y1="265.835" x2="175.842" y2="265.835" gradientUnits="userSpaceOnUse">
<stop stop-color="#B7C0CB"/>
<stop offset="0.3616" stop-color="#FBFCFC"/>
<stop offset="0.4651" stop-color="#F7F8F9"/>
<stop offset="0.5721" stop-color="#EAEDEF"/>
<stop offset="0.6807" stop-color="#D6DBE0"/>
<stop offset="0.7896" stop-color="#B9C2CA"/>
<stop offset="0.8833" stop-color="#9AA6B2"/>
</linearGradient>
<linearGradient id="paint2_linear_10_63" x1="157.148" y1="222.635" x2="299.082" y2="465.475" gradientUnits="userSpaceOnUse">
<stop stop-color="#B7C0CB"/>
<stop offset="0.3616" stop-color="#FBFCFC"/>
<stop offset="0.4651" stop-color="#F7F8F9"/>
<stop offset="0.5721" stop-color="#EAEDEF"/>
<stop offset="0.6807" stop-color="#D6DBE0"/>
<stop offset="0.7896" stop-color="#B9C2CA"/>
<stop offset="0.8833" stop-color="#9AA6B2"/>
</linearGradient>
<linearGradient id="paint3_linear_10_63" x1="163.569" y1="218.881" x2="305.503" y2="461.722" gradientUnits="userSpaceOnUse">
<stop stop-color="#B7C0CB"/>
<stop offset="0.3616" stop-color="#FBFCFC"/>
<stop offset="0.4651" stop-color="#F7F8F9"/>
<stop offset="0.5721" stop-color="#EAEDEF"/>
<stop offset="0.6807" stop-color="#D6DBE0"/>
<stop offset="0.7896" stop-color="#B9C2CA"/>
<stop offset="0.8833" stop-color="#9AA6B2"/>
</linearGradient>
<linearGradient id="paint4_linear_10_63" x1="174.82" y1="212.306" x2="316.754" y2="455.146" gradientUnits="userSpaceOnUse">
<stop stop-color="#B7C0CB"/>
<stop offset="0.3616" stop-color="#FBFCFC"/>
<stop offset="0.4651" stop-color="#F7F8F9"/>
<stop offset="0.5721" stop-color="#EAEDEF"/>
<stop offset="0.6807" stop-color="#D6DBE0"/>
<stop offset="0.7896" stop-color="#B9C2CA"/>
<stop offset="0.8833" stop-color="#9AA6B2"/>
</linearGradient>
<linearGradient id="paint5_linear_10_63" x1="186.026" y1="205.756" x2="327.96" y2="448.596" gradientUnits="userSpaceOnUse">
<stop stop-color="#B7C0CB"/>
<stop offset="0.3616" stop-color="#FBFCFC"/>
<stop offset="0.4651" stop-color="#F7F8F9"/>
<stop offset="0.5721" stop-color="#EAEDEF"/>
<stop offset="0.6807" stop-color="#D6DBE0"/>
<stop offset="0.7896" stop-color="#B9C2CA"/>
<stop offset="0.8833" stop-color="#9AA6B2"/>
</linearGradient>
<linearGradient id="paint6_linear_10_63" x1="201.459" y1="196.736" x2="343.393" y2="439.576" gradientUnits="userSpaceOnUse">
<stop stop-color="#B7C0CB"/>
<stop offset="0.3616" stop-color="#FBFCFC"/>
<stop offset="0.4651" stop-color="#F7F8F9"/>
<stop offset="0.5721" stop-color="#EAEDEF"/>
<stop offset="0.6807" stop-color="#D6DBE0"/>
<stop offset="0.7896" stop-color="#B9C2CA"/>
<stop offset="0.8833" stop-color="#9AA6B2"/>
</linearGradient>
<linearGradient id="paint7_linear_10_63" x1="222.316" y1="184.545" x2="364.25" y2="427.385" gradientUnits="userSpaceOnUse">
<stop stop-color="#B7C0CB"/>
<stop offset="0.3616" stop-color="#FBFCFC"/>
<stop offset="0.4651" stop-color="#F7F8F9"/>
<stop offset="0.5721" stop-color="#EAEDEF"/>
<stop offset="0.6807" stop-color="#D6DBE0"/>
<stop offset="0.7896" stop-color="#B9C2CA"/>
<stop offset="0.8833" stop-color="#9AA6B2"/>
</linearGradient>
<linearGradient id="paint8_linear_10_63" x1="244.42" y1="171.626" x2="386.354" y2="414.466" gradientUnits="userSpaceOnUse">
<stop stop-color="#B7C0CB"/>
<stop offset="0.3616" stop-color="#FBFCFC"/>
<stop offset="0.4651" stop-color="#F7F8F9"/>
<stop offset="0.5721" stop-color="#EAEDEF"/>
<stop offset="0.6807" stop-color="#D6DBE0"/>
<stop offset="0.7896" stop-color="#B9C2CA"/>
<stop offset="0.8833" stop-color="#9AA6B2"/>
</linearGradient>
<linearGradient id="paint9_linear_10_63" x1="263.819" y1="160.288" x2="405.754" y2="403.128" gradientUnits="userSpaceOnUse">
<stop stop-color="#B7C0CB"/>
<stop offset="0.3616" stop-color="#FBFCFC"/>
<stop offset="0.4651" stop-color="#F7F8F9"/>
<stop offset="0.5721" stop-color="#EAEDEF"/>
<stop offset="0.6807" stop-color="#D6DBE0"/>
<stop offset="0.7896" stop-color="#B9C2CA"/>
<stop offset="0.8833" stop-color="#9AA6B2"/>
</linearGradient>
<linearGradient id="paint10_linear_10_63" x1="278.462" y1="151.73" x2="420.396" y2="394.57" gradientUnits="userSpaceOnUse">
<stop stop-color="#B7C0CB"/>
<stop offset="0.3616" stop-color="#FBFCFC"/>
<stop offset="0.4651" stop-color="#F7F8F9"/>
<stop offset="0.5721" stop-color="#EAEDEF"/>
<stop offset="0.6807" stop-color="#D6DBE0"/>
<stop offset="0.7896" stop-color="#B9C2CA"/>
<stop offset="0.8833" stop-color="#9AA6B2"/>
</linearGradient>
<linearGradient id="paint11_linear_10_63" x1="289.684" y1="145.17" x2="431.619" y2="388.01" gradientUnits="userSpaceOnUse">
<stop stop-color="#B7C0CB"/>
<stop offset="0.3616" stop-color="#FBFCFC"/>
<stop offset="0.4651" stop-color="#F7F8F9"/>
<stop offset="0.5721" stop-color="#EAEDEF"/>
<stop offset="0.6807" stop-color="#D6DBE0"/>
<stop offset="0.7896" stop-color="#B9C2CA"/>
<stop offset="0.8833" stop-color="#9AA6B2"/>
</linearGradient>
<linearGradient id="paint12_linear_10_63" x1="439.441" y1="154.845" x2="461.475" y2="154.845" gradientUnits="userSpaceOnUse">
<stop stop-color="#4B97EA"/>
<stop offset="1" stop-color="#1F5999"/>
</linearGradient>
<linearGradient id="paint13_linear_10_63" x1="69.8919" y1="141.851" x2="374.809" y2="141.851" gradientUnits="userSpaceOnUse">
<stop stop-color="#4B97EA"/>
<stop offset="1" stop-color="#1F5999"/>
</linearGradient>
<linearGradient id="paint14_linear_10_63" x1="3.04459" y1="212.693" x2="438.84" y2="-54.3593" gradientUnits="userSpaceOnUse">
<stop stop-color="#B7C0CB"/>
<stop offset="0.3616" stop-color="#FBFCFC"/>
<stop offset="0.4651" stop-color="#F7F8F9"/>
<stop offset="0.5721" stop-color="#EAEDEF"/>
<stop offset="0.6807" stop-color="#D6DBE0"/>
<stop offset="0.7896" stop-color="#B9C2CA"/>
<stop offset="0.8833" stop-color="#9AA6B2"/>
</linearGradient>
<linearGradient id="paint15_linear_10_63" x1="261.711" y1="181.992" x2="356.648" y2="181.992" gradientUnits="userSpaceOnUse">
<stop stop-color="#B7C0CB"/>
<stop offset="0.3616" stop-color="#FBFCFC"/>
<stop offset="0.4651" stop-color="#F7F8F9"/>
<stop offset="0.5721" stop-color="#EAEDEF"/>
<stop offset="0.6807" stop-color="#D6DBE0"/>
<stop offset="0.7896" stop-color="#B9C2CA"/>
<stop offset="0.8833" stop-color="#9AA6B2"/>
</linearGradient>
<linearGradient id="paint16_linear_10_63" x1="22.3812" y1="437.12" x2="242.831" y2="437.12" gradientUnits="userSpaceOnUse">
<stop stop-color="#4B97EA"/>
<stop offset="1" stop-color="#1F5999"/>
</linearGradient>
</defs>
</svg>
