<svg width="400" height="80" viewBox="0 0 400 80" fill="none" xmlns="http://www.w3.org/2000/svg">
<g clip-path="url(#clip0_13_769)">
<path d="M42.1301 6.38794L30.0667 6.35879L14.0466 49.4446L22.3828 49.3861L32.8872 19.6445L33.0287 19.6792L29.2885 49.3522L37.3952 49.3124L42.1301 6.38794Z" fill="#FDFFFE"/>
<path d="M34.69 73.8403L26.1415 73.8469L27.6546 61.8469L17.9932 61.806L13.7606 73.89L4.99995 73.8446L14.0296 49.5149L22.3658 49.4564L20.9025 53.5965L28.7797 53.5755L29.2889 49.3518L37.3956 49.312L34.69 73.8403Z" fill="#C5D6E8"/>
<path d="M63.9424 45.9146L63.1632 49.0976L72.1707 49.0535L72.9326 45.9412L63.9424 45.9146ZM67.1457 32.8289L75.9944 32.8209L78.2627 23.5548C81.189 11.6008 78.4573 5.60912 69.9796 5.63303C67.5069 5.6275 65.3012 6.06221 63.3454 7.00789C58.0768 9.54175 54.1511 15.7781 51.6923 25.8222L45.961 49.235L55.198 49.172L61.3103 24.2031C62.1068 20.9494 63.013 18.4722 63.9945 16.9132C64.9759 15.3541 66.2259 14.5355 67.7271 14.5281C69.2284 14.5208 70.0974 15.2583 70.2463 16.7942C70.4124 18.2593 70.0186 20.7869 69.1701 24.2529L67.075 32.8116L67.1457 32.8289Z" fill="#FDFFFE"/>
<path d="M72.1883 48.9828L70.6126 55.4195C69.0197 61.927 66.7827 66.7774 63.9898 69.9173C61.1262 73.0399 57.5133 74.6295 53.0976 74.5982C48.6819 74.5669 45.7774 72.9562 44.348 69.6074C42.9894 66.2759 43.0365 61.4892 44.5776 55.194L46.0494 49.1816L55.2864 49.1187L53.676 55.6969C52.793 59.3043 52.4526 61.9199 52.6014 63.4558C52.7502 64.9917 53.602 65.8 55.1032 65.7926C56.6045 65.7852 57.8371 65.0374 58.7651 63.3903C59.7466 61.8312 60.6167 59.1953 61.5171 55.5171L63.1101 49.0096L72.1883 48.9828Z" fill="#C5D6E8"/>
<path d="M96.7054 45.9128L95.9955 48.8129L105.003 48.7687L105.696 45.9393L96.7054 45.9128ZM99.9087 32.8271L108.757 32.819L111.026 23.5529C113.952 11.599 111.22 5.60729 102.743 5.63121C100.27 5.62567 98.0642 6.06038 96.1083 7.00607C90.8398 9.53993 86.914 15.7762 84.4553 25.8204L78.7932 48.9502L88.0302 48.8873L94.0732 24.2013C94.8697 20.9475 95.776 18.4704 96.7574 16.9113C97.7388 15.3523 98.9889 14.5336 100.49 14.5263C101.991 14.5189 102.86 15.2565 103.009 16.7924C103.175 18.2575 102.782 20.7851 101.933 24.251L99.838 32.8098L99.9087 32.8271Z" fill="#FDFFFE"/>
<path d="M105.02 48.698L103.376 55.4176C101.783 61.9251 99.5455 66.7755 96.7527 69.9154C93.8891 73.038 90.2761 74.6276 85.8604 74.5963C81.4447 74.565 78.5403 72.9543 77.1816 69.6228C75.8229 66.2913 75.8701 61.5047 77.4112 55.2094L78.9522 48.9141L88.1892 48.8512L86.5096 55.7123C85.6265 59.3197 85.2861 61.9354 85.435 63.4712C85.6545 65.0244 86.4355 65.8154 87.9368 65.808C89.438 65.8007 90.6707 65.0528 91.5987 63.4057C92.5802 61.8466 93.4503 59.2107 94.3507 55.5325L96.013 48.7421L105.02 48.698Z" fill="#C5D6E8"/>
<path d="M140.728 15.2297L142.892 6.38803L122.793 6.41597L112.456 48.6438L121.622 48.5635L122.851 43.5415L133.272 43.5433L135.385 34.9139L124.964 34.912L129.76 15.3188L140.728 15.2297Z" fill="#FDFFFE"/>
<path d="M128.927 64.971L126.762 73.8127L106.292 73.8248L112.456 48.6437L121.552 48.5461L117.534 64.9562L128.927 64.971Z" fill="#C5D6E8"/>
<path d="M150.611 6.40301L140.326 48.4186L149.492 48.3384L159.76 6.39346L150.611 6.40301Z" fill="#FDFFFE"/>
<path d="M156.868 65.0636L154.721 73.8345L134.109 73.812L140.343 48.348L149.438 48.2503L145.317 65.0849L156.868 65.0636Z" fill="#C5D6E8"/>
<path d="M194.492 15.1956L196.656 6.35391L176.557 6.38185L166.324 48.1853L175.49 48.105L176.598 43.5781L187.019 43.5799L189.131 34.9505L178.711 34.9486L183.507 15.3554L194.492 15.1956Z" fill="#FDFFFE"/>
<path d="M182.69 64.9372L180.525 73.7789L159.984 73.7736L166.27 48.0974L175.436 48.0171L171.297 64.9224L182.69 64.9372Z" fill="#C5D6E8"/>
<path d="M216.999 38.0991C219.274 37.3814 221.051 35.9421 222.33 33.781C223.608 31.62 224.741 28.5236 225.745 24.421C226.75 20.3185 227.334 17.0128 227.445 14.4159C227.538 11.8898 227.052 9.89635 225.826 8.47173C224.6 7.04711 222.442 6.36888 219.298 6.34897L204.233 6.33455L194.069 47.8551L203.235 47.7748L204.672 41.9039L207.552 42.0841C209.495 42.1099 210.628 42.6872 211.003 43.6037C211.343 44.3616 211.314 45.704 210.9 47.7019L219.695 47.6057C219.985 45.5025 220.154 43.8944 220.06 42.7469C220.047 40.0446 218.997 38.5132 216.999 38.0991ZM216.98 23.4749C216.253 26.4457 215.646 28.6212 215.07 30.0546C214.494 31.4881 213.881 32.4625 213.195 33.1193C212.527 33.7055 211.557 33.9928 210.426 34.016L206.753 34.0164L211.584 14.2818L214.657 14.2844C216.6 14.3102 217.75 14.8167 218.003 15.9282C218.256 17.0397 217.967 19.4431 217.067 23.1213L216.98 23.4749Z" fill="#FDFFFE"/>
<path d="M214.19 73.7727L205.041 73.7823C204.932 73.3059 206.765 65.2077 210.591 49.5756C210.765 48.8683 210.903 48.3024 210.971 47.7192L219.766 47.6231C219.322 50.6632 218.476 54.7296 217.23 59.8224C215.1 68.5226 214.116 73.1549 214.19 73.7727Z" fill="#C5D6E8"/>
<path d="M203.306 47.7921L196.934 73.822L187.785 73.8316L194.14 47.8724L203.306 47.7921Z" fill="#C5D6E8"/>
<path d="M256.637 6.34216L244.573 6.31301L229.233 47.541L237.569 47.4824L247.394 19.5988L247.535 19.6334L244.033 47.4154L252.14 47.3757L256.637 6.34216Z" fill="#FDFFFE"/>
<path d="M249.196 73.7953L240.718 73.8192L242.248 61.7485L232.57 61.7783L228.284 73.7743L219.506 73.7996L229.232 47.5413L237.568 47.4828L235.425 53.4808L243.285 53.5305L244.033 47.4158L252.139 47.376L249.196 73.7953Z" fill="#C5D6E8"/>
<path d="M267.428 6.36049L265.246 15.2729L272.294 15.2737L264.45 47.3159L273.545 47.2183L281.372 15.2468L288.119 15.249L290.3 6.33662L267.428 6.36049Z" fill="#FDFFFE"/>
<path d="M273.562 47.1473L267.052 73.7431L257.903 73.7526L264.396 47.2276L273.562 47.1473Z" fill="#C5D6E8"/>
<path d="M313.251 15.1782L315.416 6.33652L295.316 6.36443L285.343 47.1069L294.509 47.0266L295.375 43.4899L305.795 43.4918L307.908 34.8623L297.487 34.8605L302.283 15.2673L313.251 15.1782Z" fill="#FDFFFE"/>
<path d="M301.521 64.9371L299.357 73.7787L278.816 73.7735L285.361 47.0363L294.527 46.956L290.129 64.9223L301.521 64.9371Z" fill="#C5D6E8"/>
<path d="M334.566 46.6368L330.954 55.5738L331.563 46.6515L334.474 6.27925L323.153 6.28179L313.231 46.812L306.634 73.7615L314.723 73.7924L320.887 48.6113L321.267 46.755L326.161 25.5364L324.728 46.7027L322.828 73.4524L330.105 73.4344L341.259 46.5509L349.934 25.5081L344.491 46.5174L343.901 48.6221L337.754 73.7325L345.932 73.71L352.598 46.4777L362.433 6.30108L351.041 6.28631L334.566 46.6368Z" fill="#B21F1F"/>
<path d="M377.994 46.2467L377.685 40.773L395.195 6.29895L386.647 6.30554L376.943 26.3466L375.926 6.30514L368.208 6.29001L369.774 37.562L365.384 46.3086L351.618 73.7524L360.467 73.7443L370.486 53.0305L371.488 73.7432L379.436 73.7396L377.994 46.2467Z" fill="#B21F1F"/>
</g>
<defs>
<clipPath id="clip0_13_769">
<rect width="400" height="80" fill="white"/>
</clipPath>
</defs>
</svg>
